<svg 
 xmlns="http://www.w3.org/2000/svg"
 xmlns:xlink="http://www.w3.org/1999/xlink"
 width="28px" height="30px">
<path fill-rule="evenodd"  fill="rgb(255, 255, 255)"
 d="M2.359,10.979 L25.617,10.979 L25.617,27.894 L2.359,27.894 L2.359,10.979 ZM8.553,8.187 C8.454,8.286 8.327,8.335 8.173,8.335 L7.116,8.335 C6.962,8.335 6.835,8.286 6.736,8.187 C6.637,8.088 6.587,7.962 6.587,7.807 L6.587,3.050 C6.587,2.896 6.637,2.769 6.736,2.670 C6.835,2.571 6.962,2.521 7.116,2.521 L8.173,2.521 C8.327,2.521 8.454,2.571 8.553,2.670 C8.652,2.769 8.702,2.896 8.702,3.050 L8.702,7.807 C8.702,7.962 8.652,8.088 8.553,8.187 ZM21.239,8.187 C21.140,8.286 21.014,8.335 20.860,8.335 L19.802,8.335 C19.648,8.335 19.522,8.286 19.422,8.187 C19.323,8.088 19.274,7.962 19.274,7.807 L19.274,3.050 C19.274,2.896 19.323,2.769 19.422,2.670 C19.522,2.571 19.648,2.521 19.802,2.521 L20.860,2.521 C21.014,2.521 21.140,2.571 21.239,2.670 C21.339,2.769 21.388,2.896 21.388,3.050 L21.388,7.807 C21.388,7.962 21.339,8.088 21.239,8.187 ZM27.104,5.263 C26.685,4.845 26.189,4.636 25.617,4.636 L23.503,4.636 L23.503,3.050 C23.503,2.322 23.244,1.701 22.726,1.183 C22.208,0.666 21.586,0.407 20.860,0.407 L19.802,0.407 C19.075,0.407 18.453,0.666 17.936,1.183 C17.418,1.701 17.159,2.322 17.159,3.050 L17.159,4.636 L10.816,4.636 L10.816,3.050 C10.816,2.322 10.557,1.701 10.040,1.183 C9.522,0.666 8.900,0.407 8.173,0.407 L7.116,0.407 C6.389,0.407 5.767,0.666 5.249,1.183 C4.732,1.701 4.473,2.322 4.473,3.050 L4.473,4.636 L2.359,4.636 C1.786,4.636 1.290,4.845 0.872,5.263 C0.453,5.682 0.244,6.177 0.244,6.750 L0.244,27.894 C0.244,28.466 0.453,28.962 0.872,29.381 C1.290,29.799 1.786,30.008 2.359,30.008 L25.617,30.008 C26.189,30.008 26.685,29.799 27.104,29.381 C27.522,28.962 27.731,28.466 27.731,27.894 L27.731,6.750 C27.731,6.177 27.522,5.682 27.104,5.263 Z"/>
</svg>