<svg 
 xmlns="http://www.w3.org/2000/svg"
 xmlns:xlink="http://www.w3.org/1999/xlink"
 width="32px" height="28px">
<path fill-rule="evenodd"  fill="rgb(255, 255, 255)"
 d="M25.834,15.005 L15.919,24.821 L5.986,14.988 C3.855,12.799 2.789,10.721 2.789,8.755 C2.789,7.806 2.912,6.969 3.157,6.243 C3.402,5.518 3.715,4.941 4.097,4.514 C4.479,4.086 4.943,3.738 5.491,3.469 C6.038,3.200 6.573,3.018 7.097,2.924 C7.622,2.831 8.180,2.784 8.773,2.784 C9.365,2.784 10.004,2.933 10.688,3.232 C11.371,3.530 12.001,3.905 12.577,4.355 C13.152,4.807 13.645,5.228 14.055,5.620 C14.466,6.012 14.808,6.372 15.081,6.700 C15.286,6.957 15.566,7.086 15.919,7.086 C16.272,7.086 16.551,6.957 16.757,6.700 C17.030,6.372 17.372,6.012 17.782,5.620 C18.193,5.228 18.685,4.807 19.261,4.355 C19.837,3.905 20.466,3.530 21.150,3.232 C21.834,2.933 22.472,2.784 23.065,2.784 C23.657,2.784 24.216,2.831 24.740,2.924 C25.264,3.018 25.800,3.200 26.347,3.469 C26.895,3.738 27.359,4.086 27.741,4.514 C28.122,4.941 28.436,5.518 28.681,6.243 C28.926,6.969 29.049,7.806 29.049,8.755 C29.049,10.721 27.977,12.805 25.834,15.005 L25.834,15.005 ZM29.066,2.714 C27.618,1.262 25.618,0.536 23.065,0.536 C22.358,0.536 21.637,0.662 20.902,0.914 C20.167,1.166 19.483,1.505 18.851,1.932 C18.218,2.360 17.674,2.761 17.218,3.135 C16.762,3.510 16.329,3.908 15.919,4.329 C15.509,3.908 15.075,3.510 14.620,3.135 C14.164,2.761 13.620,2.360 12.987,1.932 C12.354,1.505 11.671,1.166 10.936,0.914 C10.200,0.662 9.479,0.536 8.773,0.536 C6.220,0.536 4.220,1.262 2.772,2.714 C1.325,4.165 0.601,6.179 0.601,8.755 C0.601,9.538 0.735,10.346 1.003,11.178 C1.271,12.009 1.576,12.717 1.917,13.302 C2.259,13.888 2.647,14.458 3.080,15.014 C3.513,15.571 3.829,15.954 4.029,16.165 C4.228,16.375 4.385,16.527 4.499,16.621 L15.167,27.192 C15.372,27.402 15.622,27.508 15.919,27.508 C16.215,27.508 16.466,27.402 16.671,27.192 L27.322,16.656 C29.932,13.976 31.237,11.341 31.237,8.755 C31.237,6.179 30.513,4.165 29.066,2.714 Z"/>
</svg>