<svg 
 xmlns="http://www.w3.org/2000/svg"
 xmlns:xlink="http://www.w3.org/1999/xlink"
 width="23px" height="34px">
<path fill-rule="evenodd"  fill="rgb(255, 255, 255)"
 d="M11.357,17.229 C9.837,17.229 8.539,16.692 7.464,15.616 C6.388,14.541 5.850,13.244 5.850,11.723 C5.850,10.203 6.388,8.906 7.464,7.830 C8.539,6.755 9.837,6.217 11.357,6.217 C12.876,6.217 14.174,6.755 15.250,7.830 C16.325,8.906 16.863,10.203 16.863,11.723 C16.863,13.244 16.325,14.541 15.250,15.616 C14.174,16.692 12.876,17.229 11.357,17.229 ZM19.143,3.937 C16.992,1.787 14.396,0.710 11.357,0.710 C8.317,0.710 5.721,1.787 3.570,3.937 C1.420,6.088 0.344,8.683 0.344,11.723 C0.344,13.287 0.581,14.570 1.054,15.572 L8.905,32.221 C9.120,32.694 9.453,33.066 9.905,33.339 C10.356,33.612 10.840,33.748 11.357,33.748 C11.873,33.748 12.357,33.612 12.808,33.339 C13.260,33.066 13.600,32.694 13.830,32.221 L21.659,15.572 C22.132,14.570 22.369,13.287 22.369,11.723 C22.369,8.683 21.293,6.088 19.143,3.937 Z"/>
</svg>