<svg 
 xmlns="http://www.w3.org/2000/svg"
 xmlns:xlink="http://www.w3.org/1999/xlink"
 width="24px" height="35px">
<defs>
<filter id="Filter_0">
    <feFlood flood-color="rgb(255, 255, 255)" flood-opacity="1" result="floodOut" />
    <feComposite operator="atop" in="floodOut" in2="SourceGraphic" result="compOut" />
    <feBlend mode="normal" in="compOut" in2="SourceGraphic" />
</filter>

</defs>
<g filter="url(#Filter_0)">
<path fill-rule="evenodd"  fill="rgb(71, 164, 215)"
 d="M23.600,13.769 C23.342,13.512 23.037,13.383 22.685,13.383 C22.332,13.383 22.027,13.512 21.770,13.769 C21.513,14.027 21.384,14.332 21.384,14.684 L21.384,17.287 C21.384,19.794 20.492,21.939 18.710,23.721 C16.928,25.504 14.783,26.395 12.275,26.395 C9.767,26.395 7.622,25.504 5.840,23.721 C4.058,21.939 3.167,19.794 3.167,17.287 L3.167,14.684 C3.167,14.332 3.038,14.027 2.780,13.769 C2.523,13.512 2.218,13.383 1.865,13.383 C1.513,13.383 1.208,13.512 0.950,13.769 C0.693,14.027 0.564,14.332 0.564,14.684 L0.564,17.287 C0.564,20.282 1.564,22.888 3.563,25.104 C5.562,27.320 8.033,28.591 10.974,28.917 L10.974,31.600 L5.769,31.600 C5.416,31.600 5.111,31.729 4.854,31.987 C4.597,32.244 4.468,32.549 4.468,32.902 C4.468,33.253 4.597,33.559 4.854,33.817 C5.111,34.074 5.416,34.203 5.769,34.203 L18.781,34.203 C19.134,34.203 19.439,34.074 19.696,33.817 C19.954,33.559 20.083,33.253 20.083,32.902 C20.083,32.549 19.954,32.244 19.696,31.987 C19.439,31.729 19.134,31.600 18.781,31.600 L13.576,31.600 L13.576,28.917 C16.518,28.591 18.988,27.320 20.987,25.104 C22.986,22.888 23.986,20.282 23.986,17.287 L23.986,14.684 C23.986,14.332 23.857,14.027 23.600,13.769 ZM16.870,2.282 C15.596,1.007 14.064,0.371 12.275,0.371 C10.486,0.371 8.954,1.007 7.680,2.282 C6.406,3.556 5.769,5.088 5.769,6.877 L5.769,17.287 C5.769,19.076 6.406,20.608 7.680,21.882 C8.954,23.156 10.486,23.793 12.275,23.793 C14.064,23.793 15.596,23.156 16.870,21.882 C18.144,20.608 18.781,19.076 18.781,17.287 L18.781,6.877 C18.781,5.088 18.144,3.556 16.870,2.282 Z"/>
</g>
</svg>